<?xml version="1.0" standalone="no"?>
<svg viewBox="0 0 200 200" xmlns="http://www.w3.org/2000/svg">
  <path fill="#ECF8F6" d="M46.2,-78.1C60.6,-71.7,73.5,-60.8,79.3,-47C85.2,-33.3,84,-16.6,81.1,-1.7C78.2,13.3,73.7,26.6,68.2,40.9C62.6,55.2,56,70.4,44.5,77.3C33,84.1,16.5,82.5,1.9,79.2C-12.6,75.9,-25.3,70.8,-37.2,64.2C-49.2,57.6,-60.5,49.5,-70.4,38.6C-80.3,27.6,-88.8,13.8,-87.7,0.6C-86.7,-12.6,-76,-25.2,-66.3,-36.4C-56.6,-47.7,-47.8,-57.6,-36.9,-66C-26,-74.4,-13,-81.3,1.5,-83.8C15.9,-86.3,31.8,-84.5,46.2,-78.1Z" transform="translate(100 100)" />
</svg>
