<svg xmlns="http://www.w3.org/2000/svg" x="0px" y="0px"
viewBox="0 0 172 172"
style=" fill:#000000;"><g fill="none" fill-rule="nonzero" stroke="none" stroke-width="1" stroke-linecap="butt" stroke-linejoin="miter" stroke-miterlimit="10" stroke-dasharray="" stroke-dashoffset="0" font-family="none" font-weight="none" font-size="none" text-anchor="none" style="mix-blend-mode: normal"><path d="M0,172v-172h172v172z" fill="none"></path><g><path d="M10.75,39.41667h150.5v103.91667h-150.5z" fill="#1abc9c"></path><path d="M86,114.66667c-9.8951,0 -17.91667,8.02156 -17.91667,17.91667c0,9.8951 8.02156,17.91667 17.91667,17.91667c9.8951,0 17.91667,-8.02156 17.91667,-17.91667c0,-9.8951 -8.02156,-17.91667 -17.91667,-17.91667z" fill="#1abc9c"></path><path d="M86,121.83333c-5.93706,0 -10.75,4.81294 -10.75,10.75c0,5.93706 4.81294,10.75 10.75,10.75c5.93706,0 10.75,-4.81294 10.75,-10.75c0,-5.93706 -4.81294,-10.75 -10.75,-10.75z" fill="#1abc9c"></path><path d="M143.33333,28.66667l-53.75,10.75h-7.16667l-53.75,-10.75l-7.16667,17.91667v86h129v-86z" fill="#d7ccc8"></path><path d="M28.66667,121.83333h53.75v10.75h7.16667v-10.75h53.75l7.16667,10.75h-129z" fill="#bcaaa4"></path><path d="M143.33333,28.66667c0,0 -53.75,0 -53.75,10.75c0,10.75 0,93.16667 0,93.16667c0,-10.75 53.75,-10.75 53.75,-10.75zM28.66667,28.66667c0,0 53.75,0 53.75,10.75c0,10.75 0,93.16667 0,93.16667c0,-10.75 -53.75,-10.75 -53.75,-10.75z" fill="#efebe9"></path><path d="M62.35,22.575l0.71667,2.86667c0.35833,2.50833 2.50833,4.3 4.65833,4.65833l2.86667,0.71667c1.43333,0.35833 1.43333,2.50833 0,2.50833l-2.86667,0.71667c-2.50833,0.35833 -4.3,2.50833 -4.65833,4.65833l-0.71667,2.86667c-0.35833,1.43333 -2.50833,1.43333 -2.50833,0l-0.71667,-2.86667c-0.35833,-2.50833 -2.50833,-4.3 -4.65833,-4.65833l-2.86667,-0.71667c-1.43333,-0.35833 -1.43333,-2.50833 0,-2.50833l2.86667,-0.71667c2.50833,-0.35833 4.3,-2.50833 4.65833,-4.65833l0.71667,-2.86667c0,-1.43333 2.15,-1.43333 2.50833,0z" fill="#ff8a65"></path><path d="M122.55,65.21667l0.35833,2.15c0.35833,1.43333 1.43333,2.86667 3.225,3.225l2.15,0.35833c1.075,0.35833 1.075,1.43333 0,1.79167l-2.15,0.35833c-1.43333,0.35833 -2.86667,1.43333 -3.225,3.225l-0.35833,2.15c-0.35833,1.075 -1.43333,1.075 -1.79167,0l-0.35833,-2.15c-0.35833,-1.43333 -1.43333,-2.86667 -3.225,-3.225l-2.15,-0.35833c-1.075,-0.35833 -1.075,-1.43333 0,-1.79167l2.15,-0.35833c1.43333,-0.35833 2.86667,-1.43333 3.225,-3.225l0.35833,-2.15c0.35833,-1.075 1.79167,-1.075 1.79167,0z" fill="#ff7043"></path><path d="M68.8,90.3l0.35833,2.15c0.35833,1.43333 1.43333,2.86667 3.225,3.225l2.15,0.35833c1.075,0.35833 1.075,1.43333 0,1.79167l-2.15,0.35833c-1.43333,0.35833 -2.86667,1.43333 -3.225,3.225l-0.35833,2.15c-0.35833,1.075 -1.43333,1.075 -1.79167,0l-0.35833,-2.15c-0.35833,-1.43333 -1.43333,-2.86667 -3.225,-3.225l-2.15,-0.35833c-1.075,-0.35833 -1.075,-1.43333 0,-1.79167l2.15,-0.35833c1.43333,-0.35833 2.86667,-1.43333 3.225,-3.225l0.35833,-2.15c0.35833,-1.075 1.79167,-1.075 1.79167,0z" fill="#ff8a65"></path></g></g></svg>