<svg xmlns="http://www.w3.org/2000/svg" x="0px" y="0px"
viewBox="0 0 172 172"
style=" fill:#000000;"><defs><radialGradient cx="76.00967" cy="133.85542" r="43.28308" gradientUnits="userSpaceOnUse" id="color-1_kDPHHp80u2xF_gr1"><stop offset="0" stop-color="#6e757b"></stop><stop offset="1" stop-color="#4a4e52"></stop></radialGradient><linearGradient x1="72.59833" y1="33.57583" x2="108.1665" y2="144.824" gradientUnits="userSpaceOnUse" id="color-2_kDPHHp80u2xF_gr2"><stop offset="0" stop-color="#1abc9c"></stop><stop offset="1" stop-color="#6bd3be"></stop></linearGradient><linearGradient x1="113.33008" y1="-25.78925" x2="175.99183" y2="129.57333" gradientUnits="userSpaceOnUse" id="color-3_kDPHHp80u2xF_gr3"><stop offset="0" stop-color="#1abc9c"></stop><stop offset="1" stop-color="#6bd3be"></stop></linearGradient><linearGradient x1="-3.784" y1="21.44625" x2="58.87775" y2="176.80883" gradientUnits="userSpaceOnUse" id="color-4_kDPHHp80u2xF_gr4"><stop offset="0" stop-color="#1abc9c"></stop><stop offset="1" stop-color="#6bd3be"></stop></linearGradient><linearGradient x1="78.39258" y1="-11.696" x2="141.05433" y2="143.66658" gradientUnits="userSpaceOnUse" id="color-5_kDPHHp80u2xF_gr5"><stop offset="0" stop-color="#1abc9c"></stop><stop offset="1" stop-color="#6bd3be"></stop></linearGradient><linearGradient x1="79.47833" y1="-12.13675" x2="142.14008" y2="143.22583" gradientUnits="userSpaceOnUse" id="color-6_kDPHHp80u2xF_gr6"><stop offset="0" stop-color="#1abc9c"></stop><stop offset="1" stop-color="#6bd3be"></stop></linearGradient><linearGradient x1="30.06775" y1="7.79375" x2="92.7295" y2="163.15633" gradientUnits="userSpaceOnUse" id="color-7_kDPHHp80u2xF_gr7"><stop offset="0" stop-color="#1abc9c"></stop><stop offset="1" stop-color="#6bd3be"></stop></linearGradient><linearGradient x1="-3.3325" y1="21.2635" x2="59.32925" y2="176.62608" gradientUnits="userSpaceOnUse" id="color-8_kDPHHp80u2xF_gr8"><stop offset="0" stop-color="#1abc9c"></stop><stop offset="1" stop-color="#6bd3be"></stop></linearGradient><linearGradient x1="112.87858" y1="-25.6065" x2="175.54392" y2="129.75608" gradientUnits="userSpaceOnUse" id="color-9_kDPHHp80u2xF_gr9"><stop offset="0" stop-color="#1abc9c"></stop><stop offset="1" stop-color="#6bd3be"></stop></linearGradient></defs><g fill="none" fill-rule="nonzero" stroke="none" stroke-width="1" stroke-linecap="butt" stroke-linejoin="miter" stroke-miterlimit="10" stroke-dasharray="" stroke-dashoffset="0" font-family="none" font-weight="none" font-size="none" text-anchor="none" style="mix-blend-mode: normal"><path d="M0,172v-172h172v172z" fill="none"></path><g><path d="M107.5,136.16667h-43c0,3.06375 0,8.6 0,8.6c0,11.87517 9.62483,21.5 21.5,21.5c11.87517,0 21.5,-9.62483 21.5,-21.5c0,0 0,-5.53625 0,-8.6z" fill="url(#color-1_kDPHHp80u2xF_gr1)"></path><path d="M129,75.25c0,-23.74675 -19.25325,-43 -43,-43c-23.74675,0 -43,19.25325 -43,43c0,25.08333 21.5,43 21.5,56.61667v4.3h43v-4.3c0,-13.61667 21.5,-31.53333 21.5,-56.61667z" fill="url(#color-2_kDPHHp80u2xF_gr2)"></path><circle cx="43" cy="21" transform="scale(3.58333,3.58333)" r="2" fill="url(#color-3_kDPHHp80u2xF_gr3)"></circle><circle cx="5" cy="21" transform="scale(3.58333,3.58333)" r="2" fill="url(#color-4_kDPHHp80u2xF_gr4)"></circle><circle cx="24" cy="2" transform="scale(3.58333,3.58333)" r="2" fill="url(#color-5_kDPHHp80u2xF_gr5)"></circle><circle cx="37.435" cy="34.435" transform="scale(3.58333,3.58333)" r="2" fill="url(#color-6_kDPHHp80u2xF_gr6)"></circle><circle cx="10.565" cy="7.565" transform="scale(3.58333,3.58333)" r="2" fill="url(#color-7_kDPHHp80u2xF_gr7)"></circle><circle cx="10.565" cy="34.435" transform="scale(3.58333,3.58333)" r="2" fill="url(#color-8_kDPHHp80u2xF_gr8)"></circle><circle cx="37.435" cy="7.565" transform="scale(3.58333,3.58333)" r="2" fill="url(#color-9_kDPHHp80u2xF_gr9)"></circle></g></g></svg>