<svg xmlns="http://www.w3.org/2000/svg" x="0px" y="0px"
width="48" height="48"
viewBox="0 0 172 172"
style=" fill:#000000;"><defs><linearGradient x1="58.61258" y1="9.61408" x2="135.78683" y2="135.17767" gradientUnits="userSpaceOnUse" id="color-1_mwxUhg9z9WwF_gr1"><stop offset="0" stop-color="#1abc9c"></stop><stop offset="1" stop-color="#16538c"></stop></linearGradient><linearGradient x1="44.8705" y1="20.20642" x2="124.47067" y2="149.71525" gradientUnits="userSpaceOnUse" id="color-2_mwxUhg9z9WwF_gr2"><stop offset="0" stop-color="#1abc9c"></stop><stop offset="1" stop-color="#2ecc71"></stop></linearGradient></defs><g fill="none" fill-rule="nonzero" stroke="none" stroke-width="1" stroke-linecap="butt" stroke-linejoin="miter" stroke-miterlimit="10" stroke-dasharray="" stroke-dashoffset="0" font-family="none" font-weight="none" font-size="none" text-anchor="none" style="mix-blend-mode: normal"><path d="M0,172v-172h172v172z" fill="none"></path><g><path d="M158.025,21.5h-122.55c-3.7625,0 -6.80833,2.99208 -6.80833,6.69008v86.95675c0,3.69442 3.04583,6.6865 6.80833,6.6865h122.55c3.7625,0 6.80833,-2.99208 6.80833,-6.69008v-86.95317c0,-3.698 -3.04583,-6.69008 -6.80833,-6.69008z" fill="url(#color-1_mwxUhg9z9WwF_gr1)"></path><path d="M157.66667,121.83333v-82.603c0,-5.8265 -4.74075,-10.56367 -10.56725,-10.56367h-118.43275v93.16667z" fill="#000000" opacity="0.05"></path><path d="M155.875,121.83333v-82.603c0,-4.8375 -3.93808,-8.772 -8.77558,-8.772h-118.43275v91.375z" fill="#000000" opacity="0.07"></path><path d="M147.09942,32.25h-125.78217c-3.85925,0 -6.98392,3.12467 -6.98392,6.98392v89.95242c0,3.85567 3.12467,6.98033 6.98392,6.98033h28.84942v27.63825c0,3.11033 3.75892,4.66908 5.95908,2.46892l30.10717,-30.10717h60.8665c3.85925,0 6.98392,-3.12467 6.98392,-6.98392v-89.94883c0,-3.85925 -3.12467,-6.98392 -6.98392,-6.98392z" fill="url(#color-2_mwxUhg9z9WwF_gr2)"></path></g></g></svg>