<svg xmlns="http://www.w3.org/2000/svg" x="0px" y="0px"
viewBox="0 0 172 172"
style=" fill:#000000;"><g fill="none" fill-rule="nonzero" stroke="none" stroke-width="1" stroke-linecap="butt" stroke-linejoin="miter" stroke-miterlimit="10" stroke-dasharray="" stroke-dashoffset="0" font-family="none" font-weight="none" font-size="none" text-anchor="none" style="mix-blend-mode: normal"><path d="M0,172v-172h172v172z" fill="none"></path><g><path d="M114.66667,157.66667v-16.48333l9.31667,1.79167c10.39167,2.15 20.06667,-5.375 20.78333,-15.76667l2.15,-23.29167l10.39167,-4.3c3.58333,-1.43333 5.01667,-5.73333 2.86667,-9.31667l-13.25833,-22.21667c-2.15,-27.23333 -17.55833,-53.75 -57.33333,-53.75c-40.85,0 -60.91667,30.1 -60.91667,60.91667c0,13.25833 4.65833,24.725 11.825,34.4c6.45,8.95833 9.675,19.70833 9.675,30.45833v17.55833z" fill="#1abc9c"></path><path d="M28.66667,75.25c0,7.9335 1.69492,15.21125 4.57233,21.86192c5.24958,2.05325 10.94708,3.22142 16.92767,3.22142c25.72833,0 46.58333,-20.855 46.58333,-46.58333c0,-15.867 -7.94783,-29.8635 -20.06308,-38.27358c-32.15325,5.65808 -48.02025,32.40767 -48.02025,59.77358z" fill="#7ddcbf"></path><path d="M79.55,57.69167c0.35833,-1.43333 0.35833,-2.86667 0.35833,-3.94167c0,-1.075 0,-2.86667 -0.35833,-3.94167l8.24167,-6.09167c0.71667,-0.71667 1.075,-1.79167 0.71667,-2.50833l-8.24167,-13.975c-0.35833,-0.71667 -1.43333,-1.075 -2.50833,-0.71667l-9.31667,4.3c-2.15,-1.79167 -4.65833,-3.225 -7.16667,-4.3l-1.075,-10.39167c0,-1.075 -1.075,-1.79167 -1.79167,-1.79167h-16.48333c-0.71667,0 -1.79167,0.71667 -1.79167,1.79167l-1.075,10.39167c-2.50833,0.71667 -5.01667,2.15 -7.16667,3.94167l-9.31667,-4.3c-1.075,-0.35833 -2.15,0 -2.50833,0.71667l-8.24167,14.33333c-0.35833,0.71667 0,1.79167 0.71667,2.50833l8.24167,6.09167c-0.35833,1.43333 -0.35833,2.86667 -0.35833,3.94167c0,1.075 0,2.86667 0.35833,3.94167l-8.24167,6.09167c-0.71667,0.71667 -1.075,1.79167 -0.71667,2.50833l8.24167,13.975c0.35833,0.71667 1.43333,1.075 2.50833,0.71667l9.31667,-4.3c2.15,1.79167 4.65833,3.225 7.16667,4.3l1.075,10.39167c0,1.075 1.075,1.79167 1.79167,1.79167h16.125c1.075,0 1.79167,-0.71667 1.79167,-1.79167l1.075,-10.39167c2.50833,-1.075 5.01667,-2.50833 7.16667,-4.3l9.31667,4.3c1.075,0.35833 2.15,0 2.50833,-0.71667l8.24167,-13.975c0.35833,-0.71667 0.35833,-2.15 -0.71667,-2.50833zM50.16667,72.38333c-10.39167,0 -18.63333,-8.24167 -18.63333,-18.63333c0,-10.39167 8.24167,-18.63333 18.63333,-18.63333c10.39167,0 18.63333,8.24167 18.63333,18.63333c0,10.39167 -8.24167,18.63333 -18.63333,18.63333" fill="#546e7a"></path><path d="M50.16667,32.25c-11.825,0 -21.5,9.675 -21.5,21.5c0,11.825 9.675,21.5 21.5,21.5c11.825,0 21.5,-9.675 21.5,-21.5c0,-11.825 -9.675,-21.5 -21.5,-21.5M50.16667,64.5c-6.09167,0 -10.75,-4.65833 -10.75,-10.75c0,-6.09167 4.65833,-10.75 10.75,-10.75c6.09167,0 10.75,4.65833 10.75,10.75c0,6.09167 -4.65833,10.75 -10.75,10.75" fill="#455a64"></path></g></g></svg>