<svg viewBox="0 0 34 28" fill="none" xmlns="http://www.w3.org/2000/svg">
<path fill-rule="evenodd" clip-rule="evenodd" d="M33.935 3.47296C32.6629 4.03391 31.3151 4.40455 29.935 4.57296C31.3894 3.69876 32.4781 2.32761 33 0.712955C31.626 1.51266 30.1291 2.07932 28.57 2.38995C26.6165 0.298638 23.5829 -0.385579 20.9207 0.664697C18.2586 1.71497 16.5094 4.28615 16.51 7.14796C16.5102 7.68584 16.5707 8.21986 16.6905 8.74205C11.0867 8.47227 5.86237 5.83089 2.32299 1.47796C1.69816 2.54017 1.37232 3.75162 1.37999 4.98396C1.37919 7.31402 2.54243 9.49029 4.48012 10.784C3.37354 10.7486 2.29145 10.4493 1.32399 9.91096L1.32399 9.99696C1.32201 13.3159 3.65966 16.1766 6.91274 16.8359C5.8905 17.1112 4.8193 17.1523 3.77899 16.956C4.69612 19.7968 7.3153 21.7424 10.3 21.8C7.83438 23.7348 4.79013 24.785 1.65599 24.782C1.10267 24.7816 0.549806 24.7502 0 24.688C3.19572 26.7339 6.91144 27.8199 10.706 27.817C23.532 27.817 30.538 17.198 30.538 8.00296C30.538 7.70296 30.538 7.40296 30.517 7.11096C31.8848 6.12587 33.0645 4.90313 34 3.50096L33.935 3.47296Z" fill="#B0B7C3"/>
</svg>
