<svg viewBox="0 0 33 24" fill="none" xmlns="http://www.w3.org/2000/svg">
<path fill-rule="evenodd" clip-rule="evenodd" d="M32.3021 3.67003C32.113 2.96771 31.7486 2.32493 31.2431 1.80203C30.7447 1.28615 30.12 0.909674 29.4311 0.710028C26.8591 2.85144e-05 16.5101 2.85144e-05 16.5101 2.85144e-05C16.5101 2.85144e-05 6.18706 -0.0159713 3.58906 0.710029C2.90011 0.909676 2.27542 1.28615 1.77705 1.80203C1.27152 2.32493 0.907118 2.96771 0.718056 3.67003C0.230361 6.38567 -0.00995728 9.13996 5.62996e-05 11.899C-0.00811097 14.65 0.232295 17.3945 0.718341 20.1006C0.908031 20.8013 1.27229 21.4424 1.77706 21.964C2.27542 22.4799 2.90011 22.8564 3.58905 23.056C6.15806 23.768 16.5101 23.768 16.5101 23.768C16.5101 23.768 26.8321 23.768 29.4311 23.056C30.12 22.8563 30.7447 22.4799 31.2431 21.964C31.7486 21.4411 32.113 20.7984 32.3021 20.096C32.7779 17.389 33.0082 14.6445 32.9901 11.896C33.0098 9.13952 32.7796 6.38624 32.3022 3.67065L32.3021 3.67003ZM13.2071 16.984V6.78403L21.8211 11.89L13.2071 16.984Z" fill="#B0B7C3"/>
</svg>
